name processed_emg_signals
nRows=82
nColumns=7
 
endheader
time	RGLTMED	RRF	RADDLONG	RST	RTA	RGM
0.0	0.0037851906054433	0.0357995145733848	0.005189081086892	0.0042796400981803	0.166855366785208	0.018427756902504
0.001	0.0044377003791717	0.0409180027027699	0.0039424691038995	0.0049995074253227	0.1816768261654803	0.0194804542051417
0.002	0.0050933353488459	0.0460992169572766	0.0026891336648157	0.0057160258068459	0.1964694444983531	0.0205358761046125
0.003	0.005751761895372	0.0513405388010508	0.0014296038293968	0.0064285694302872	0.2112233333369362	0.0215932237956498
0.004	0.0064126441686292	0.0566392552928088	0.000164408054323	0.0071365098233067	0.2259286401837321	0.0226516879548032
0.005	0.0070756445325669	0.0619925607913074	0.0011059266517846	0.0078392166533607	0.2405755640076304	0.0237104497142131
0.006	0.0077404240077414	0.0673975588041461	0.0023808755498841	0.0085360585393066	0.2551543706528919	0.024768681655204
0.007	0.0084066427097368	0.0728512639801577	0.0036599169645177	0.0092264038737089	0.2696554080899583	0.0258255488195276
0.008	0.0090739602819832	0.0783506042454501	0.0049425330467022	0.009909621654789	0.2840691214607337	0.0268802097361353
0.009000000000000001	0.0097420363216423	0.0838924230830179	0.0062282105024501	0.0105850823269423	0.298386067873277	0.0279318174615314
0.01	0.0104105307972769	0.0894734819556669	0.0075164412840117	0.0112521586288749	0.3125969309033504	0.0289795206318457
0.011	0.0110791044571082	0.0950904628717164	0.0088067232413569	0.0119102264484152	0.3266925347629307	0.0300224645248141
0.012	0.0117474192266513	0.1007399710927617	0.0100985607318046	0.0125586656831484	0.3406638580991599	0.0310597921299358
0.013000000000000001	0.012415138594647	0.1064185379825267	0.0113914651861807	0.0131968611059913	0.3545020473905444	0.0320906452249969
0.014	0.0130819279862883	0.1121226239955263	0.012684955630253	0.0138242032348902	0.3681984299099059	0.0331141654572721
0.015	0.0137474551228673	0.1178486218040193	0.013978559160547	0.0144400892058089	0.3817445262248824	0.0341294954276421
0.016	0.0144113903670261	0.1235928595614533	0.0152718113738887	0.0150439236482229	0.3951320622070976	0.0351357797758603
0.017	0.0150734070528915	0.1293516043003719	0.0165642567504103	0.015635119562307	0.4083529805212955	0.0361321662652034
0.018000000000000002	0.0157331818004152	0.1351210654625764	0.0178554489899837	0.0162130991971224	0.4213994515659076	0.0371178068646498
0.019	0.0163903948132752	0.1408973985590942	0.0191449513023598	0.0167772949290307	0.4342638838367873	0.0380918588267416
0.02	0.0170447301598596	0.1466767089572751	0.0204323366515575	0.0173271501396985	0.4469389336860074	0.03905348575924
0.021	0.0176958760369591	0.1524550557919813	0.0217171879552882	0.0178621200930022	0.4594175144484704	0.0400018586886975
0.022	0.0183435250160103	0.158228455997494	0.0229990982404744	0.0183816728101756	0.4716928049108944	0.0409361571140568
0.023	0.0189873742719754	0.1639928884562983	0.0242776707560954	0.0188852899425871	0.4837582571009658	0.0418555700484273
0.024	0.0196271257950377	0.1697442982604979	0.0255525190447368	0.0193724676414571	0.4956076033790274	0.0427592970472124
0.025	0.0202624865855355	0.1754786010812269	0.0268232669743183	0.0198427174238982	0.5072348628199256	0.0436465492208125
0.026000000000000002	0.020893168832543	0.1811916876411381	0.0280895487315021	0.0202955670345872	0.5186343468779497	0.0445165502302164
0.027	0.0215188900766376	0.1868794282848225	0.0293510087782867	0.0207305613024449	0.529800664332098	0.0453685372639023
0.028	0.0221393733574211	0.1925376776418211	0.0306073017732822	0.0211472629916817	0.5407287255119622	0.0462017619945521
0.029	0.0227543473463872	0.1981622793766508	0.0318580924592096	0.021545253646588	0.5514137458062539	0.0470154915142316
0.03	0.0233635464657038	0.2037490710201249	0.0331030555182339	0.0219241344294165	0.5618512484573487	0.0478090092469577
0.031	0.0239667109935444	0.2092938888758702	0.034341875396774	0.0222835269507203	0.5720370666468122	0.0485816158378893
0.032	0.0245635871564573	0.214792572995727	0.0355742461015614	0.0226230740914575	0.5819673448793586	0.0493326300187371
0.033	0.0251539272094052	0.2202409722172823	0.0367998709686705	0.0229424408162009	0.5916385396758541	0.050061389449393
0.034	0.0257374895040035	0.2256349492564179	0.038018462407323	0.0232413149767375	0.6010474195895901	0.0507672515359445
0.035	0.0263140385455878	0.230970385847161	0.039229741620251	0.0235194081053022	0.6101910645631823	0.0514495942254611
0.036000000000000004	0.0268833450397541	0.2362431879204777	0.0404334383023889	0.0237764561966595	0.6190668646460863	0.0521078167779956
0.037	0.027445185928925	0.2414492908130262	0.0416292903197088	0.0240122204781518	0.6276725180948226	0.0527413405163005
0.038	0.0279993444195565	0.2465846644961727	0.042817043370026	0.024226488166855	0.6360060288798084	0.0533496095536593
0.039	0.0285456100004415	0.2516453188150204	0.0439964506275789	0.0244190732128728	0.6440657036246008	0.0539320915003151
0.04	0.0290837784526639	0.2566273087265668	0.0451672723732753	0.0245898170278574	0.6518501480047885	0.0544882781489365
0.041	0.0296136518516436	0.2615267395256062	0.0463292756124896	0.0247385891978031	0.659358262634573	0.0550176861396292
0.042	0.0301350385617529	0.2663397720464557	0.0474822336824053	0.0248652881791883	0.6665892384689811	0.0555198576051031
0.043000000000000003	0.0306477532239459	0.2710626278280099	0.0486259258509679	0.0249698419775417	0.6735425517490371	0.0559943607966261
0.044	0.0311516167368384	0.2756915942289765	0.0497601369096386	0.0250522088074529	0.6802179585163073	0.0564407906914838
0.045	0.0316464562316581	0.2802230294794301	0.0508846567620761	0.0251123777331303	0.6866154887224918	0.0568587695827678
0.046	0.0321321050415342	0.284653367654159	0.0519992800108964	0.0251503692885232	0.692735439959021	0.0572479476523399
0.047	0.0326084026656824	0.2889791235527482	0.0531038055444909	0.0251662360760652	0.698578370831108	0.057608003527884
0.048	0.0330751947291121	0.2931968974710762	0.05419803612582	0.0251600633430456	0.7041450940003355	0.0579386448249587
0.049	0.0335323329385875	0.297303379848906	0.0552817779849601	0.0251319695346278	0.7094366689195	0.0582396086749578
0.05	0.0339796750356376	0.3012953557786007	0.0563548404171013	0.0250821068225381	0.7144543942830553	0.0585106622398141
0.051000000000000004	0.0344170847474162	0.3051697093605514	0.0574170353875068	0.0250106616084622	0.7191998002164478	0.0587516032142579
0.052000000000000005	0.0348444317362564	0.3089234278918509	0.0584681771448931	0.0249178550012155	0.7236746402277987	0.0589622603162696
0.053	0.0352615915487242	0.3125536058758517	0.059508081844438	0.0248039432667289	0.7278808829458566	0.0591424937662895
0.054	0.0356684455650221	0.3160574488413814	0.0605365671816426	0.0246692182498553	0.7318207036687703	0.0592921957555474
0.055	0.0360648809495399	0.3194322769616703	0.0615534520381629	0.024514007766973	0.7354964757490506	0.0594112909037744
0.056	0.036450790603337	0.3226755284646761	0.0625585561407812	0.0243386759683605	0.7389107618408686	0.0594997367064565
0.057	0.0368260731193094	0.3257847628286723	0.063551699734713	0.024143623669315	0.7420663050363887	0.0595575239715954
0.058	0.0371906327407208	0.3287576637595118	0.0645327032724637	0.0239292886489659	0.7449660199181039	0.0595846772459138
0.059000000000000004	0.0375443793237264	0.3315920419485487	0.0655013871194828	0.023696145915808	0.7476129835538999	0.0595812552302125
0.06	0.0378872283044182	0.3342858376125917	0.0664575712778662	0.0234447079388944	0.7500104264606947	0.0595473511835205
0.061	0.0382191006708874	0.3368371228188318	0.0674010751293792	0.0231755248436728	0.7521617235607746	0.0594830933155023
0.062	0.0385399229406817	0.3392441035987076	0.0683317171990366	0.022889184571408	0.7540703851529926	0.0593886451664838
0.063	0.0388496271439988	0.3415051218551091	0.069249314940422	0.022586313001158	0.7557400479190933	0.0592642059742948
0.064	0.0391481508128328	0.3436186570677276	0.0701536845437901	0.0222675740332939	0.7571744659841851	0.0591100110270318
0.065	0.0394354369762735	0.3455833278015062	0.0710446407678266	0.0219336696336177	0.7583775020495679	0.0589263320007106
0.066	0.0397114341620354	0.3473978930230775	0.0719219967956816	0.0215853398371185	0.7593531186157987	0.0587134772806671
0.067	0.0399760964042836	0.3490612532297352	0.0727855641158196	0.021223362710554	0.760105369313313	0.0584717922655092
0.068	0.040229383257758	0.3505724513949446	0.0736351524280258	0.020848554272969	0.7606383903574132	0.0582016596523556
0.069	0.0404712598181811	0.3519306737337446	0.0744705695749096	0.0204617683733888	0.7609563921435043	0.0579034997020844
0.07	0.0407016967489327	0.3531352502905259	0.0752916214991279	0.0200638965248335	0.7610636509978126	0.0575777704832845
0.07100000000000001	0.040920670313976	0.3541856553507942	0.0760981122264887	0.0196558676938374	0.7609645010984734	0.0572249680935877
0.07200000000000001	0.0411281624169855	0.355081507677584	0.0768898438750774	0.0192386480446515	0.760663326582009	0.056845626857056
0.073	0.0413241606466673	0.3558225705723848	0.0776666166905309	0.018813240637303	0.7601645538507509	0.0564403194962795
0.074	0.0415086583281889	0.3564087517597511	0.0784282291076246	0.0183806850787032	0.7594726440971749	0.0560096572779161
0.075	0.0416816545805797	0.3568401030944225	0.0791744778383146	0.0179420571259312	0.7585920860614099	0.0555542901303981
0.076	0.0418431543799343	0.3571168200896858	0.0799051579862846	0.0174984682408634	0.7575273890378198	0.0550749067325979
0.077	0.0419931686281298	0.3572392412658127	0.0806200631879099	0.0170510650952752	0.7562830761456534	0.0545722345722312
0.078	0.0421317142266873	0.3572078473178909	0.0813189857793838	0.0166010290255419	0.7548636778772307	0.0540470399727481
0.079	0.0422588141553335	0.3570232601031114	0.0820017169895569	0.0161495754361342	0.7532737259354715	0.0535001280874345
0.08	0.04237449755468	0.3566862414487317	0.0826680471579389	0.0156979531510769	0.7515177473709862	0.0529323428594165
0.081	0.0424787998124533	0.3561976917829543	0.0833177659772244	0.0152474437126456	0.7496002590279363	0.0523445669463282
